<svg xmlns="http://www.w3.org/2000/svg" width="210" height="27.187" viewBox="0 0 210 27.187"><g transform="translate(0.023 0.015)"><g transform="translate(-0.023 -0.015)"><path d="M4.544,27.162A1.9,1.9,0,0,1,2.47,25.511L-.008,5.5A1.891,1.891,0,0,1,1.623,3.4l27.689-3.4a1.9,1.9,0,0,1,2.074,1.651l2.466,20.017a1.891,1.891,0,0,1-1.612,2.111Z" transform="translate(0.023 0.015)"/><path d="M13.237,25.15a1.313,1.313,0,0,0,.4.138,2.459,2.459,0,0,0,.392,0,2.184,2.184,0,0,0,1.751-1.006L23.872,13.1a1.165,1.165,0,0,1,2.106.629l.632,9.761a3.755,3.755,0,0,0,.1.9.625.625,0,0,0,0,.107,1.118,1.118,0,0,0,1.056.818h.285a1.77,1.77,0,0,0,1.189-.409,6.3,6.3,0,0,0,1.024-1.2l7.9-10.95a1.165,1.165,0,0,1,2.093.472l1.72,7.931c0,.673.392,1.006,1.119,1.006a2.829,2.829,0,0,0,.411,0,2.54,2.54,0,0,0,.493-.138,2.286,2.286,0,0,0,1.669-1.415.557.557,0,0,0,.038-.2,2.818,2.818,0,0,1,.07-.371v-.164L43.543,8.036a1.254,1.254,0,0,0-.272-.748,1.008,1.008,0,0,0-.8-.289h-3.01a1.765,1.765,0,0,0-.98.283,3.294,3.294,0,0,0-.8.748L32.08,15.86a1.171,1.171,0,0,1-2.112-.591l-.512-7.233a1.254,1.254,0,0,0-.272-.748A.97.97,0,0,0,28.419,7h-3.01a1.771,1.771,0,0,0-.986.283,3.154,3.154,0,0,0-.79.748L12.883,22.992l-.082.17-.177.327a1.58,1.58,0,0,0-.095.245,1.252,1.252,0,0,0,0,.83,1.162,1.162,0,0,0,.708.585Z" transform="translate(-4.566 -2.562)" fill="#ffc107" stroke="#ffc107" stroke-miterlimit="10" stroke-width="1"/><path d="M81.461,23.514c0,1.214-.632,1.818-1.9,1.818s-1.9-.629-1.8-1.887V16.318l-.2-.239-.322-.415-.632-.793c-.253-.333-.594-.786-1.031-1.346L74,11.456,71.78,8.462q-.961-1.315.518-1.6h1.176a2.882,2.882,0,0,1,2.453,1.2l3.124,4.221a.793.793,0,0,0,1.265,0l3.25-4.3A2.279,2.279,0,0,1,85.7,6.827h1.644q1.84.057.929,1.145l-6.816,8.347Z" transform="translate(-26.415 -2.498)"/><path d="M125.719,23.675q0,1.661-1.726,1.661h-1.012a2.257,2.257,0,0,1-1.612-.629l-9.086-9.523c-.911-.761-1.366-.755-1.366,0v8.3q.085,1.887-1.84,1.887a1.665,1.665,0,0,1-1.9-1.887V8.239c0-.918.424-1.39,1.265-1.409h.911a2.389,2.389,0,0,1,1.619.736l9.82,10.542c.816.472,1.227.277,1.227-.572V8.73a1.555,1.555,0,0,1,1.808-1.843,1.652,1.652,0,0,1,1.9,1.818Z" transform="translate(-39.661 -2.502)"/><path d="M164.664,9.449a8.937,8.937,0,0,1,2.529,6.661,9.074,9.074,0,0,1-2.529,6.724,9.087,9.087,0,0,1-6.728,2.516h-7.967c-.9,0-1.359-.554-1.359-1.661V8.235a1.226,1.226,0,0,1,1.359-1.409h7.885a9.271,9.271,0,0,1,6.81,2.623Zm-11.318,1.082c-.677,0-1.012.314-1.012.943V20.62c0,.673.36,1.006,1.094,1.006h4.426a5.18,5.18,0,0,0,4.843-2.466,5.582,5.582,0,0,0,.79-3.057,5.258,5.258,0,0,0-1.751-4.139,5.8,5.8,0,0,0-3.882-1.434Z" transform="translate(-54.997 -2.498)"/><path d="M205.028,22.825c-1.189,1.673-3.389,2.516-6.62,2.516h-9.074a1.764,1.764,0,0,1-2-1.988V9.17q0-2.315,2.087-2.34h9.017q4.793,0,6.595,2.516a5.282,5.282,0,0,1,.879,3.044q-.164,3.3-2.681,3.887,2.491.572,2.624,3.516a5.05,5.05,0,0,1-.822,3.032Zm-8.852-4.894c-1.309.031-1.966-.572-1.966-1.824s.632-1.805,1.9-1.843h3.908c1.062,0,1.726-.283,2-.849a2.746,2.746,0,0,0,.133-.434,2.566,2.566,0,0,0,.051-.572,1.779,1.779,0,0,0-.234-1.032,1.779,1.779,0,0,0-.936-.547,10.091,10.091,0,0,0-2.63-.3h-6.178q-1.176,0-1.176,1.258v8.642c0,.749.392,1.12,1.176,1.12H198.4l1.562-.057a5.529,5.529,0,0,0,1.069-.132,1.9,1.9,0,0,0,.936-.535,1.772,1.772,0,0,0,.234-1.044,2.429,2.429,0,0,0-.183-.981c-.278-.585-.942-.874-2-.874h-3.825Z" transform="translate(-69.33 -2.502)"/><path d="M234.966,12.541q-.632-1.925-1.265,0l-4.591,11.951a1.2,1.2,0,0,1-1.119.874h-1.9q-1.043-.044-.632-1.3l6.431-16.172a2.548,2.548,0,0,1,2.428-1.063,2.4,2.4,0,0,1,2.39,1.145L243.3,24.14c.259.761.051,1.157-.632,1.2h-1.9a1.219,1.219,0,0,1-1.151-.874Z" transform="translate(-83.401 -2.502)"/><path d="M281.9,23.675a1.5,1.5,0,0,1-1.72,1.661h-1.018a2.257,2.257,0,0,1-1.612-.629l-9.086-9.523c-.911-.761-1.366-.755-1.366,0v8.3q.085,1.887-1.84,1.887a1.665,1.665,0,0,1-1.9-1.887V8.239c0-.918.424-1.39,1.265-1.409h.911a2.389,2.389,0,0,1,1.619.736l9.82,10.542c.822.472,1.227.277,1.227-.572V8.73a1.555,1.555,0,0,1,1.808-1.843,1.652,1.652,0,0,1,1.9,1.818Z" transform="translate(-97.575 -2.502)"/><path d="M319.953,9.45a8.937,8.937,0,0,1,2.529,6.661,9.074,9.074,0,0,1-2.529,6.724,9.1,9.1,0,0,1-6.734,2.516h-7.929c-.911,0-1.359-.554-1.359-1.661V8.236c0-.937.449-1.409,1.359-1.409h7.885a9.271,9.271,0,0,1,6.778,2.623Zm-11.287,1.088c-.677,0-1.018.314-1.018.943v9.139c0,.673.367,1.006,1.094,1.006h4.426a5.187,5.187,0,0,0,4.843-2.466A5.581,5.581,0,0,0,318.8,16.1a5.27,5.27,0,0,0-1.739-4.139,5.822,5.822,0,0,0-3.882-1.434Z" transform="translate(-112.492 -2.499)"/></g></g></svg>