<svg id="footer_logo" xmlns="http://www.w3.org/2000/svg" width="240.619" height="31.151" viewBox="0 0 240.619 31.151">
  <g id="レギュレーション">
    <path id="パス_47" data-name="パス 47" d="M5.191,31.124a2.166,2.166,0,0,1-2.368-1.891L-.006,6.305A2.166,2.166,0,0,1,1.856,3.894L33.469,0a2.166,2.166,0,0,1,2.368,1.891l2.815,22.935a2.166,2.166,0,0,1-1.841,2.418Z" transform="translate(0.023 0.015)" fill="#fff"/>
    <path id="パス_48" data-name="パス 48" d="M13.347,27.833a1.494,1.494,0,0,0,.455.159,2.794,2.794,0,0,0,.448,0,2.491,2.491,0,0,0,2-1.155L25.49,14a1.328,1.328,0,0,1,2.4.722l.722,11.2a4.332,4.332,0,0,0,.116,1.032.722.722,0,0,0,0,.123,1.278,1.278,0,0,0,1.206.938h.325a2.014,2.014,0,0,0,1.357-.469,7.219,7.219,0,0,0,1.169-1.372l9.024-12.568a1.328,1.328,0,0,1,2.39.541l1.964,9.1c0,.772.448,1.155,1.278,1.155a3.213,3.213,0,0,0,.469,0,2.888,2.888,0,0,0,.563-.159,2.613,2.613,0,0,0,1.906-1.624.642.642,0,0,0,.043-.231,3.249,3.249,0,0,1,.079-.426v-.188L47.949,8.19a1.444,1.444,0,0,0-.31-.859A1.148,1.148,0,0,0,46.728,7H43.292a2.007,2.007,0,0,0-1.119.325,3.768,3.768,0,0,0-.91.859l-6.4,8.988a1.336,1.336,0,0,1-2.411-.679l-.585-8.3a1.444,1.444,0,0,0-.31-.859A1.1,1.1,0,0,0,30.68,7H27.244a2.014,2.014,0,0,0-1.126.325,3.61,3.61,0,0,0-.9.859L12.943,25.357l-.094.195-.2.375a1.819,1.819,0,0,0-.108.282,1.444,1.444,0,0,0,0,.953,1.328,1.328,0,0,0,.809.671Z" transform="translate(-3.448 -1.934)" fill="#ffc107" stroke="#ffc107" stroke-miterlimit="10" stroke-width="1"/>
    <path id="パス_49" data-name="パス 49" d="M82.886,25.98c0,1.393-.722,2.086-2.166,2.086s-2.166-.722-2.057-2.166V17.721l-.231-.274-.368-.476-.722-.91c-.289-.383-.679-.9-1.177-1.545l-1.8-2.375L71.834,8.7q-1.1-1.509.592-1.841h1.343a3.285,3.285,0,0,1,2.8,1.372l3.566,4.844a.9.9,0,0,0,1.444,0L85.29,8.142a2.6,2.6,0,0,1,2.44-1.314h1.877q2.1.065,1.061,1.314l-7.782,9.58Z" transform="translate(-19.84 -1.886)" fill="#fff"/>
    <path id="パス_50" data-name="パス 50" d="M128.346,26.163a1.714,1.714,0,0,1-1.971,1.906h-1.155a2.57,2.57,0,0,1-1.841-.722l-10.374-10.93c-1.04-.874-1.559-.866-1.559,0v9.522a1.837,1.837,0,0,1-2.1,2.166,1.906,1.906,0,0,1-2.166-2.166V8.447c0-1.054.484-1.6,1.444-1.617h1.04a2.722,2.722,0,0,1,1.848.845l11.211,12.1c.931.541,1.4.318,1.4-.657V9.01q-.087-2.166,2.065-2.115a1.891,1.891,0,0,1,2.166,2.086Z" transform="translate(-29.789 -1.888)" fill="#fff"/>
    <path id="パス_51" data-name="パス 51" d="M166.939,9.838a10.287,10.287,0,0,1,2.888,7.645,10.445,10.445,0,0,1-2.888,7.717,10.344,10.344,0,0,1-7.681,2.888h-9.1c-1.032,0-1.552-.635-1.552-1.906V8.444c0-1.076.52-1.617,1.552-1.617h9a10.554,10.554,0,0,1,7.775,3.01Zm-12.922,1.242c-.772,0-1.155.361-1.155,1.083v10.5c0,.772.411,1.155,1.249,1.155h5.053a5.905,5.905,0,0,0,5.53-2.83,6.432,6.432,0,0,0,.9-3.508,6.05,6.05,0,0,0-2-4.75,6.6,6.6,0,0,0-4.433-1.646Z" transform="translate(-41.311 -1.885)" fill="#fff"/>
    <path id="パス_52" data-name="パス 52" d="M207.536,25.188c-1.357,1.92-3.869,2.888-7.558,2.888H189.618a2.02,2.02,0,0,1-2.288-2.281V9.516q0-2.657,2.382-2.686h10.294q5.472,0,7.53,2.888a6.086,6.086,0,0,1,1,3.494q-.188,3.783-3.061,4.461,2.844.657,3,4.035a5.819,5.819,0,0,1-.938,3.48ZM197.43,19.572c-1.494.036-2.245-.657-2.245-2.094s.722-2.072,2.166-2.115h4.461c1.213,0,1.971-.325,2.288-.975a3.162,3.162,0,0,0,.152-.5,2.96,2.96,0,0,0,.058-.657,2.05,2.05,0,0,0-.267-1.184,2.029,2.029,0,0,0-1.068-.628,11.464,11.464,0,0,0-3-.339h-7.053q-1.343,0-1.343,1.444v9.919c0,.859.448,1.285,1.343,1.285h7.053l1.783-.065a6.281,6.281,0,0,0,1.22-.152,2.166,2.166,0,0,0,1.068-.614,2.043,2.043,0,0,0,.267-1.2,2.8,2.8,0,0,0-.209-1.126c-.318-.671-1.076-1-2.288-1h-4.368Z" transform="translate(-52.078 -1.888)" fill="#fff"/>
    <path id="パス_53" data-name="パス 53" d="M236.329,13.385q-.722-2.209-1.444,0L229.644,27.1a1.372,1.372,0,0,1-1.278,1H226.2q-1.191-.051-.722-1.494l7.342-18.56a2.9,2.9,0,0,1,2.772-1.22,2.742,2.742,0,0,1,2.729,1.314L245.844,26.7c.3.874.058,1.328-.722,1.372h-2.166a1.393,1.393,0,0,1-1.314-1Z" transform="translate(-62.65 -1.888)" fill="#fff"/>
    <path id="パス_54" data-name="パス 54" d="M284.526,26.163a1.711,1.711,0,0,1-1.964,1.906H281.4a2.57,2.57,0,0,1-1.841-.722l-10.374-10.93c-1.04-.874-1.559-.866-1.559,0v9.522a1.837,1.837,0,0,1-2.1,2.166,1.906,1.906,0,0,1-2.166-2.166V8.447c0-1.054.484-1.6,1.444-1.617h1.04a2.722,2.722,0,0,1,1.848.845l11.211,12.1c.938.541,1.4.318,1.4-.657V9.01q-.087-2.166,2.065-2.115a1.891,1.891,0,0,1,2.166,2.086Z" transform="translate(-73.221 -1.888)" fill="#fff"/>
    <path id="パス_55" data-name="パス 55" d="M322.223,9.838a10.287,10.287,0,0,1,2.888,7.645,10.445,10.445,0,0,1-2.888,7.717,10.354,10.354,0,0,1-7.688,2.888h-9.053c-1.04,0-1.552-.635-1.552-1.906V8.445c0-1.076.513-1.617,1.552-1.617h9a10.554,10.554,0,0,1,7.739,3.01Zm-12.886,1.249c-.772,0-1.162.361-1.162,1.083V22.659c0,.772.419,1.155,1.249,1.155h5.053a5.912,5.912,0,0,0,5.53-2.83,6.433,6.433,0,0,0,.9-3.508,6.064,6.064,0,0,0-1.985-4.75,6.627,6.627,0,0,0-4.433-1.646Z" transform="translate(-84.503 -1.886)" fill="#fff"/>
  </g>
</svg>
